<svg width="52" height="54" viewBox="0 0 52 54" fill="none" xmlns="http://www.w3.org/2000/svg">
<path d="M36.635 18.589C40.941 18.589 44.431 15.099 44.431 10.792C44.431 6.488 40.941 3 36.635 3C32.334 3 28.843 6.489 28.843 10.792C28.842 15.099 32.334 18.589 36.635 18.589ZM47.927 30.662C47.724 24.722 42.857 19.962 36.865 19.962C34.053 19.962 31.495 21.018 29.541 22.744C28.283 19.848 25.4 17.822 22.04 17.822C19.91 17.822 17.976 18.644 16.52 19.979C15.796 17.55 13.549 15.779 10.884 15.779C7.703 15.779 5.117 18.303 5.009 21.46H5V32.496H13.864V41.059H25.786V51.447H47.947V30.662H47.927ZM21.871 16.805C25.048 16.805 27.625 14.231 27.625 11.056C27.625 7.879 25.048 5.305 21.871 5.305C18.696 5.305 16.122 7.879 16.122 11.056C16.122 14.231 18.696 16.805 21.871 16.805ZM10.764 15.047C13.051 15.047 14.903 13.194 14.903 10.908C14.903 8.621 13.051 6.768 10.764 6.768C8.478 6.768 6.625 8.622 6.625 10.908C6.625 13.194 8.478 15.047 10.764 15.047Z" fill="black"/>
</svg>
